<?xml version="1.0" encoding="UTF-8"?>
<!DOCTYPE svg PUBLIC "-//W3C//DTD SVG 1.0//EN" "http://www.w3.org/TR/2001/REC-SVG-20010904/DTD/svg10.dtd">
<!-- Creator: CorelDRAW 2019 (64-Bit) -->
<svg xmlns="http://www.w3.org/2000/svg" xml:space="preserve" width="1in" height="1in" version="1.0" style="shape-rendering:geometricPrecision; text-rendering:geometricPrecision; image-rendering:optimizeQuality; fill-rule:evenodd; clip-rule:evenodd"
viewBox="0 0 1000 1000"
 xmlns:xlink="http://www.w3.org/1999/xlink">
 <defs>
  <style type="text/css">
   <![CDATA[
    .fil0 {fill:#C8BA4A}
   ]]>
  </style>
 </defs>
 <g id="Layer_x0020_1">
  <metadata id="CorelCorpID_0Corel-Layer"/>
  <g>
   <path class="fil0" d="M367.5 692.91l-0.51 -63.51 58.37 -0.67 0.26 64.9 -58.12 -0.72zm45.37 -168.41l-8.49 0 -36.02 0.11c-2.89,6.39 -1.44,54.8 -0.76,65.83l58 0.88 0.01 -67.33 -11.61 0.55 -1.13 -0.03zm-125.21 0l-0.09 0 0 0.28 0.09 -0.28zm390.42 -0.98l7.55 -4.75 11.14 -6.74c3.53,-0.15 2.95,0.91 2.89,-2.04l6.96 -1.91c19.72,-9.35 41.96,-15.68 65.68,-18.94 9.76,-1.34 11.94,-0.83 17.52,3.91 52.96,44.91 40.79,116.05 2.77,162.65 -31.62,38.76 -85.41,33.32 -112.57,-5.13 -18.01,-25.49 -33.6,-61.57 -28.5,-95.85 1.78,-11.98 3.21,-11.74 17.63,-23.65 2.17,-0.55 1.87,0.13 1.14,-1.91 4.84,-2.11 2.27,-0.21 4.46,-3.91 2.67,0.89 2.24,1.66 2.24,-0.84l1.09 -0.86zm-222.7 -183.87l-55.28 -0.4 -0.65 -56.19 57.44 -0.62 -0.23 58.05 -1.28 -0.83zm78.18 -56.94c0.44,1.01 0.78,-0.56 0.98,4.6l-0.4 52.07c-9.32,2.74 -45.71,0.86 -58.44,0.99l57.86 -57.66zm-56.99 56.74l-0.32 -57.07c4.22,-1.85 6.96,-1 12.69,-1.09 9.14,-0.14 38.41,-1.57 44.63,1.42l-56.99 56.74zm152.28 159.35l-0.26 2.41 0.55 32.52c0.24,5.28 -0.59,7.37 1.98,10.43l-0.2 11.11c-13.35,4.85 -13.95,5.34 -13.24,23.16 0.47,12.01 4.83,17.42 13.33,21.01 8.24,3.48 5.48,-0.02 8.54,9.96 3.5,11.38 10.1,25.35 15.59,35.18 15,26.85 40.03,55.39 83.22,55.41 19.81,0.01 41.51,-7.58 52.11,-17.17 19.41,-17.55 32.3,-37.12 42.39,-62.32 7.63,-19.06 3,-16.6 12.66,-20.96 8.78,-3.96 13.11,-10 13.33,-22.67 0.3,-16.66 -0.46,-16.42 -12.91,-21.6 3.14,-37.37 1.1,-64.5 -16.22,-92.89 -22.91,-37.57 -69.92,-60.24 -115.28,-43.38 -29.38,10.91 -38.91,25.48 -50.48,32.55 -6.63,4.05 -11.79,6.29 -17.4,10.39 -9.36,6.85 -16.05,19.94 -17.69,36.87zm109.48 220.66c-0.37,0.16 -29.57,21.61 -24.57,34.13 8.66,21.63 13.83,8.75 1.65,45.11 -9.12,27.2 -10.81,19.62 1.68,44.06l21.24 38.71c5.78,-7.9 16.44,-30.64 21.2,-40.22 11.59,-23.3 10.4,-15.69 1.43,-42.2 -12.82,-37.91 -7.66,-23.37 0.98,-44.95 4.28,-10.7 -3.65,-13.46 -8.83,-19.61 -4.54,-5.39 -8.26,-12.01 -14.78,-15.02zm-169.81 -639.43l38.08 0.44c0.11,9.47 0.11,18.97 -0.02,28.39 -0.21,15.16 -1.78,13.41 7.96,20.62l65.14 48.8c6.67,4.64 28.82,22.77 34.64,24.88 0.82,-26.43 0.13,-53.91 0.13,-80.47 0,-5.01 -0.5,-37.5 0.19,-39.55 1.87,-5.63 30.51,-2.78 38.3,-2.5 -0.24,-14.96 2.58,-41.32 -23,-48.02 -9.86,-2.58 -130.56,-2.56 -139.93,0.43 -17.72,5.63 -24.84,22.93 -21.49,46.99zm-495.75 259.66l52.85 0.07c10.33,-0 33.76,-21.74 43.64,-28.7l191.44 -141.11c7.15,-5.15 13.34,-10 21,-15.91l21.29 -15.63c7.37,-5.2 14.54,-10.25 21.36,-15.67l43.03 -31.12 212.88 156.89c6.72,5.11 13.78,11.2 20.78,16.12 27.71,19.5 60.78,46.36 85,62.78 23.39,15.85 10.45,12.47 53.89,12.35l21.43 -0.11c-9.33,-9.04 -93.36,-70.44 -110.07,-82.21 -4.55,-3.21 -7.9,-6.44 -12.08,-9.38l-123.22 -90.86c-36.24,-28.84 -87.89,-63.38 -123.86,-91.63 -6.17,-4.85 -18.17,-13.92 -24.75,-17.78 -13,7.37 -214.36,158.3 -245.95,181.49 -20.52,15.07 -143.32,103.16 -148.67,110.42zm665.56 566.42c-6.67,-3.29 -14.77,-24.17 -19.36,-32.78l-51.8 -100.59c-5.98,-11.52 -11.98,-22.04 -17.35,-33.5 -6.72,-14.33 -8.91,-24.77 -28.84,-16.57 -29.78,12.25 -45.5,17.56 -57.44,44.29 -8.22,18.41 -8.54,67.87 -10.4,91.65 -1.57,20.03 -8.6,76.57 -1.48,91.07 12.65,25.72 50.33,18.71 83.54,18.71l204.75 0c32.99,0 70.01,6.95 84,-18.13 7.63,-13.67 -0.15,-72.67 -1.41,-92.68 -1.39,-22.09 -2.49,-74.13 -10.5,-91.07 -13.67,-28.96 -25.18,-30.86 -57.6,-44.04 -19.31,-7.85 -21.83,4.19 -28.65,17.29 -11.76,22.63 -81.93,162.78 -87.46,166.38zm-391.04 -213.01l-58.29 0.51 0.31 -64.83 58.45 0.48 -0.47 63.84zm-58.16 -102.09l-0.65 -66.5 58.08 0.02 0.89 66.85c-7.92,-1.84 -49.03,-1.64 -58.31,-0.37l0 0zm-24.3 -75.04c-4.41,6.23 -1.15,185.93 -1.5,210.63l-46.13 0.49c2.59,-16.52 0.76,-233.73 0.76,-270.33 0,-23.18 2.62,-71.12 -0.76,-91.49l47.63 150.71zm-47.53 -150.89l498.7 -0.04 -0.59 25.21c7.82,-0.15 2.24,-0.05 4.4,-1.78 5.08,0.41 20.51,-2.2 44.69,-0.57l-0.04 -48.65 -222.38 -165.03c-6.78,-5.26 -12.07,-9.3 -18.45,-13.9 -18.77,-13.52 -37.3,-29.96 -56.23,-41.52 -22.66,14.4 -50.44,38.03 -74.21,54.32l-74.96 55.87c-6.37,5.32 -12.69,8.9 -18.87,13.5l-37.07 27.53c-26.62,18.88 -68.25,52.39 -93.45,69.2l0 388.31 -38.12 0.15 0.02 58.02 400.84 0.49c3.89,-34.63 13.04,-38.3 23.5,-54.12 1.82,-2.76 1.11,-0.98 2.73,-5.38l-106.24 0.09c-1.83,-11.53 -0.47,-119.46 -0.48,-140.76 -0.01,-52.08 6.42,-86.13 -20.8,-121.46 -39.49,-51.25 -118.61,-39.11 -145.16,-0.77 -8.63,12.46 -22.15,31.55 -20.3,52.13l-47.53 -150.89zm259.11 -159.15l57.09 0.04 0.09 12.17 0 32.33 -0.03 12.75 -57.38 -0 0.03 -15.83 -0.01 -21.55 -0.04 -9.24 0.24 -10.66zm-76.5 0.02l57.05 -0.12 0.03 57.42 -57.29 -0.19 0.21 -57.11z"/>
  </g>
 </g>
</svg>
