<?xml version="1.0" encoding="UTF-8"?>
<!DOCTYPE svg PUBLIC "-//W3C//DTD SVG 1.0//EN" "http://www.w3.org/TR/2001/REC-SVG-20010904/DTD/svg10.dtd">
<!-- Creator: CorelDRAW 2019 (64-Bit) -->
<svg xmlns="http://www.w3.org/2000/svg" xml:space="preserve" width="1in" height="1in" version="1.0" style="shape-rendering:geometricPrecision; text-rendering:geometricPrecision; image-rendering:optimizeQuality; fill-rule:evenodd; clip-rule:evenodd"
viewBox="0 0 1000 1000"
 xmlns:xlink="http://www.w3.org/1999/xlink">
 <defs>
  <style type="text/css">
   <![CDATA[
    .fil0 {fill:#C8BA4A}
   ]]>
  </style>
 </defs>
 <g id="Layer_x0020_1">
  <metadata id="CorelCorpID_0Corel-Layer"/>
  <path class="fil0" d="M395.54 117.41l0.02 268.2 23.52 4.22 0.06 -256.95c13.62,-4.51 40.22,-24.67 50.86,-25.71l0.04 321.31 -186.64 -25.54 -126.76 230.19 31.34 0.07c24.65,-41.84 75.26,-145.69 102.06,-196.43 28.57,37.01 115.9,170.15 137.69,196.2l248.08 0.22c-4.23,-7.2 -14.68,-19.86 -20.33,-27.1l-69.36 -85.11c-10.19,-12.85 -7.08,-20.4 -7.07,-41.54l-0.03 -154.54c6.96,-7.26 44.78,-32.46 54.77,-36.84 30.3,16.73 59.86,42.83 90.65,59.4l0.26 416.38c-33.99,-4.61 -63.56,-29.05 -101.61,-33.37l-0.72 64.56 -116.25 18.5 -0.22 -125.77 -62.85 -0.08 -0.08 133.81c-9.26,4.72 -8.94,3.12 -31.44,6.74 -15.77,2.54 -15.92,4.38 -29.48,-0.23l-113.77 -34.52c-20.15,-6.08 -39.13,-13.57 -59.91,-16.31l0.2 -50.02c-18.05,-0.62 -85.27,19.85 -104.22,26.47 -17.19,6.01 -31.13,10.7 -47.32,18.67 -18.65,9.18 -34.76,15.51 -33.07,33.23 36.83,28.54 147.3,-0.69 181.93,54.36 18.69,29.7 -1.65,51.25 69.12,43.61 64.61,-6.98 134.44,-12.34 199.13,-0.65 70.19,12.68 93.46,55.13 212.34,-18.39 34.38,-21.26 74.38,-52.16 122.18,-61.27 48.57,-9.25 128.48,3.29 167.49,-17.48 -1.32,-8.6 -2.8,-8.97 -11.44,-12.24 -6.85,-2.59 -12.22,-3.98 -19.34,-5.63 -49.48,-11.37 -94.44,-8.2 -129.08,-14.98l-0.34 -531.26c-14.27,-5.26 -39.3,-21.48 -54.56,-29.9 -17.2,-9.49 -37.03,-20.58 -53.76,-30.7 -30.81,-18.63 -24.33,-14.41 -55.79,3.34 -18.01,10.17 -36.77,19.89 -54.21,30.15l-0.07 20.75 85.83 -44.59 0.81 108.67c-11.3,-4.42 -42.63,-26.67 -51.73,-33.96 -16.69,4.94 -39.56,29.14 -53.52,32.27l-0.21 -154.36 -107.76 -69.83c-8.15,2.2 -29.7,16.16 -38.52,21.29 -12.39,7.2 -25.74,15.41 -36.94,22.7zm271.43 359.56l2.53 2.08c3.73,-1.04 3.02,-1.98 3.02,1.61l2.49 3.36c5.05,-3.69 2.7,0.72 4.35,-6.5 0.06,-0.24 -0.07,-6.2 -0.07,-6.23 -0.08,-6.87 -0.27,-8.43 0.82,-15.31 -3.22,0.24 -2.52,1.08 -2.64,-1.87l-3.22 -0.84 -2.85 -3.36 -3.21 -1.02 -0.92 0 -0.31 28.09zm22.96 -88.19l11.72 8.41 0.73 -29.86c-5.55,-2.66 -5.83,-4.26 -12.59,-5.79l0.14 27.24zm-22.75 36.5l2.61 1.89 2.98 3.17 2.62 3.12c4,-4.15 2.68,-1.02 3.98,-7.5 0.02,-0.09 -0.06,-7.65 -0.07,-8.34 -0.12,-6.7 -0.12,-10.23 -1.37,-15.52l-3.34 -0.74 -2.92 -3.2c-3.52,0.89 -2.8,1.74 -2.8,-1.67l-1.67 0.22 -0.02 28.56zm22.75 67.9l11.78 7.57 0.58 -30.07c-6.19,-3.03 -5.4,-4.24 -12.26,-5.74l-0.1 28.23zm12.11 -44.73l0.26 -29.46c-6.63,-3.46 -4.89,-4.36 -12.38,-5.78 -0.15,20.78 -4.91,29.69 12.12,35.24zm-35.85 -73.76l13.43 7.46 0.16 -28.41 -13.37 -9.13 -0.22 30.07zm-27.84 -19.41l17.39 10.84 0.37 -28.96c-5.69,-4.09 -10.67,-8.48 -17.84,-10.62l0.08 28.74zm17.7 62.3l0.03 -28.96c-7.87,-4.61 -8.93,-8.16 -17.78,-10.17 -0.02,7.93 -2.11,21.48 0.81,27.86 1.5,3.28 11.61,8.99 16.93,11.27zm-352.13 224.28l35.09 -0.15 -0.29 -45.64 -34.79 -0.07 -0.02 45.86zm35.5 14.48l-35.46 0.28 -0.11 45.26 35.5 0.39 0.07 -45.93zm-81.99 46.83l35.25 0 0.73 -47.48 -35.93 -0.22c-2.29,9.7 -2.19,37.89 -0.05,47.7zm0.24 -59.74l34.95 -0.36 0.91 -47.57 -36.59 -0.13c-1.42,11.84 -2.21,37 0.72,48.06z"/>
 </g>
</svg>
