<?xml version="1.0" encoding="UTF-8"?>
<!DOCTYPE svg PUBLIC "-//W3C//DTD SVG 1.0//EN" "http://www.w3.org/TR/2001/REC-SVG-20010904/DTD/svg10.dtd">
<!-- Creator: CorelDRAW 2019 (64-Bit) -->
<svg xmlns="http://www.w3.org/2000/svg" xml:space="preserve" width="1in" height="1in" version="1.0" style="shape-rendering:geometricPrecision; text-rendering:geometricPrecision; image-rendering:optimizeQuality; fill-rule:evenodd; clip-rule:evenodd"
viewBox="0 0 1000 1000"
 xmlns:xlink="http://www.w3.org/1999/xlink">
 <defs>
  <style type="text/css">
   <![CDATA[
    .fil0 {fill:#024639}
   ]]>
  </style>
 </defs>
 <g id="Layer_x0020_1">
  <metadata id="CorelCorpID_0Corel-Layer"/>
  <path class="fil0" d="M452.37 949.11c-0.01,0.01 -3.3,0.47 0.89,4.68 2.38,2.39 2.99,1.26 2.82,4.62 -3.87,-0.98 -7.31,-4.98 -7.22,-10.57 0.26,-0.17 3.61,-2.35 3.65,-2.38 1.08,-0.96 3.12,-7.63 9.48,-1.94 2.11,1.89 3.46,2.52 3.72,5.72 -5.85,-1.04 -3.78,-5.23 -9.11,-5.02 -0.98,3.29 0.08,3.43 1.91,5.16 0.93,0.88 3.47,2.6 2.37,3.71 -2.29,2.32 -4.21,-5.81 -8.51,-3.98zm0.53 -464.33l1.43 -0.44 1.15 -0.95 0.93 -0.38c1.97,-0.86 1.26,-0.68 1.77,-1.49l1.67 -1.05 1.18 -0.86c1.24,0.28 1.07,0.57 0.75,-0.61l2.31 -1.83 15.21 -10.02c5.31,2.46 13.47,11.17 18.5,15.46 5.13,4.37 27.32,21.73 31.59,23.22 -0.76,14.3 4.03,21.98 13.78,26.61 12.7,6.03 21.94,-0.91 29.21,-7.67 25,-23.25 55.15,-55.58 80.72,-80.72 6.35,-6.24 13.87,-15.54 8.19,-28.99 -5.42,-12.82 -14.67,-14.63 -25.61,-14.17 -5.33,-6.47 -9.16,-12.79 -14,-18.76 -16.11,-19.88 -27.94,-34.04 -46.43,-51.81 -15.06,-14.46 -35.39,-33.57 -52.64,-45.67l-18.63 -13.99c0.92,-12.39 -5.09,-21.12 -13.13,-24.18 -2.11,-1.49 -4.1,-1.89 -6.76,-2.33l-4.67 -0.34 -6.7 1.7c-4.76,1.52 -12.47,8.64 -14.12,11.19 -1.59,0.25 -1.35,-0.23 -1.01,1.23 -1.4,-0.33 -1.09,-0.57 -0.78,0.85 -1.26,-0.16 -1.04,-0.44 -0.75,0.78 -1.16,-0.26 -0.85,-0.44 -0.7,0.78 -1.33,-0.24 -1.09,-0.53 -0.83,0.77 -2.31,1.17 -5.65,4.63 -7.02,7.02 -1.3,-0.25 -1.06,-0.53 -0.8,0.76 -1.29,-0.28 -1.04,-0.54 -0.81,0.74 -1.39,-0.33 -1.15,-0.61 -0.81,0.77 -1.4,-0.35 -1.14,-0.61 -0.79,0.78 -1.31,-0.22 -1.02,-0.46 -0.74,0.87 -1.21,-0.24 -0.94,-0.46 -0.72,0.77 -1.3,-0.24 -1.04,-0.5 -0.8,0.79 -1.27,-0.23 -1,-0.48 -0.77,0.8 -1.26,-0.2 -1.04,-0.48 -0.79,0.74 -1.26,-0.26 -1.01,-0.52 -0.78,0.74 -1.4,-0.31 -1.18,-0.63 -0.85,0.74 -1.44,-0.37 -1.2,-0.65 -0.82,0.78 -1.24,-0.14 -0.94,-0.38 -0.69,0.89 -1.26,-0.23 -1,-0.49 -0.76,0.77 -1.3,-0.24 -1.02,-0.5 -0.78,0.8 -1.23,-0.21 -0.97,-0.46 -0.76,0.78 -1.28,-0.2 -1.06,-0.5 -0.81,0.74 -1.26,-0.27 -1,-0.52 -0.77,0.74 -1.4,-0.31 -1.18,-0.63 -0.85,0.74 -1.44,-0.37 -1.2,-0.65 -0.82,0.78 -1.23,-0.13 -0.94,-0.37 -0.69,0.88 -1.26,-0.24 -0.99,-0.48 -0.76,0.78 -1.28,-0.23 -1.02,-0.49 -0.78,0.79 -1.26,-0.22 -1,-0.48 -0.77,0.78 -1.3,-0.22 -1.06,-0.5 -0.8,0.76 -1.2,-0.24 -0.96,-0.49 -0.77,0.71 -1.43,-0.32 -1.19,-0.63 -0.85,0.77 -1.41,-0.35 -1.14,-0.61 -0.79,0.79 -1.28,-0.2 -1,-0.44 -0.73,0.85 -1.25,-0.25 -0.98,-0.49 -0.75,0.78 -1.28,-0.23 -1.02,-0.5 -0.78,0.78 -1.28,-0.23 -1.01,-0.49 -0.78,0.79 -1.3,-0.22 -1.06,-0.5 -0.8,0.76 -1.2,-0.24 -0.95,-0.49 -0.77,0.71 -1.43,-0.32 -1.19,-0.63 -0.85,0.77 -1.4,-0.35 -1.14,-0.61 -0.79,0.78 -1.31,-0.22 -1.03,-0.46 -0.74,0.84 -1.28,-0.27 -1,-0.5 -0.75,0.8 -1.26,-0.24 -0.99,-0.48 -0.76,0.79 -1.27,-0.23 -1,-0.48 -0.78,0.79 -1.28,-0.21 -1.05,-0.5 -0.8,0.75 -1.24,-0.26 -0.99,-0.51 -0.79,0.72 -1.41,-0.33 -1.18,-0.63 -0.83,0.77 -1.42,-0.35 -1.14,-0.61 -0.79,0.82 -1.3,-0.16 -1.06,-0.44 -0.75,0.82 -1.17,-0.26 -0.88,-0.46 -0.69,0.76 -1.36,-0.28 -1.12,-0.57 -0.84,0.78 -1.32,-0.29 -1.04,-0.53 -0.78,0.81 -1.28,-0.25 -1,-0.5 -0.76,0.8 -1.24,-0.22 -0.98,-0.47 -0.76,0.78 -1.27,-0.23 -1.02,-0.49 -0.79,0.76 -1.29,-0.24 -1.04,-0.52 -0.79,0.76 -1.35,-0.27 -1.09,-0.54 -0.81,0.8 -1.25,-0.25 -0.97,-0.48 -0.74,0.78 -1.28,-0.24 -1.02,-0.5 -0.78,0.79 -1.26,-0.23 -1,-0.48 -0.77,0.79 -1.3,-0.21 -1.07,-0.51 -0.81,0.74 -1.23,-0.27 -0.97,-0.51 -0.75,0.74 -1.41,-0.31 -1.19,-0.63 -0.85,0.74 -1.44,-0.37 -1.2,-0.66 -0.82,0.78 -1.23,-0.13 -0.94,-0.37 -0.69,0.88 -1.25,-0.24 -0.98,-0.48 -0.76,0.78 -1.28,-0.23 -1.01,-0.49 -0.78,0.79 -1.26,-0.22 -1,-0.48 -0.78,0.78 -1.3,-0.22 -1.06,-0.51 -0.8,0.76 -1.21,-0.24 -0.96,-0.49 -0.75,0.72 -1.42,-0.31 -1.2,-0.63 -0.86,0.75 -1.44,-0.37 -1.19,-0.64 -0.81,0.79 -1.23,-0.16 -0.94,-0.39 -0.7,0.87 -1.25,-0.24 -0.98,-0.48 -0.76,0.78 -1.28,-0.24 -1.01,-0.5 -0.78,0.79 -1.26,-0.22 -1,-0.48 -0.78,0.78 -1.3,-0.22 -1.06,-0.51 -0.8,0.76 -1.2,-0.24 -0.96,-0.5 -0.77,0.71 -1.42,-0.33 -1.19,-0.63 -0.85,0.77 -1.4,-0.35 -1.14,-0.61 -0.79,0.79 -1.28,-0.21 -0.99,-0.44 -0.72,0.86 -1.24,-0.24 -0.97,-0.48 -0.74,0.78 -1.29,-0.24 -1.03,-0.5 -0.79,0.79 -1.26,-0.23 -1,-0.48 -0.77,0.79 -1.29,-0.21 -1.07,-0.51 -0.8,0.75 -1.22,-0.26 -0.96,-0.51 -0.78,0.72 -1.42,-0.33 -1.19,-0.63 -0.84,0.77 -1.4,-0.35 -1.14,-0.61 -0.79,0.79 -1.28,-0.2 -0.99,-0.44 -0.72,0.85 -1.25,-0.25 -0.98,-0.48 -0.75,0.78 -1.29,-0.24 -1.02,-0.5 -0.78,0.8 -1.24,-0.21 -0.97,-0.46 -0.76,0.78 -1.27,-0.2 -1.05,-0.49 -0.8,0.74 -1.28,-0.26 -0.98,-0.49 -0.76,0.83 -1.28,-0.2 -0.83,-0.43 -1.16,0.92 -10.38,7.51 -9.18,43.08 25.15,37.77 1.78,3.96 2.59,3.93 5.02,7.48 1.77,2.58 2.9,4.38 4.86,6.88 3.54,4.51 7.28,8.81 10.68,13.44 3.5,4.77 6.76,8.69 10.94,13.25l10.91 13.22c-7.33,10.82 -20.07,29.2 -28.67,39.13l-16.06 18.22c-7.67,9.35 -42.97,43.29 -51.71,49.67 -3.54,2.59 -5.96,4.11 -9.75,7.46 -3.63,3.2 -6.29,4.56 -9.69,7.46 -21,17.9 -29.38,13.49 -7.01,35.31 7.07,6.9 11.84,16.35 19.17,12.74 2.25,-1.11 24.68,-31.46 30.02,-37.87 1.42,-1.7 2.52,-2.86 4.05,-4.53 1.68,-1.83 2.21,-2.92 3.76,-4.83l24.57 -26.09c5.82,-5.49 11.04,-10.47 17.33,-16.2 3,-2.73 6.05,-4.96 9.3,-7.89 2.04,-1.83 7.52,-5.7 8.51,-7.2 0.2,-0.14 0.5,-0.6 0.61,-0.43l1.64 -1.11c0.15,-0.09 0.35,-0.2 0.49,-0.29 0.78,-0.48 1.75,-1 2.79,-1.74l4.52 -4.51 0.09 0.24c2.75,-1.38 3.44,-1.02 5.19,-4.08zm274.63 193.56l-2.89 0.11 -4.26 -0.1 -2.57 0.01c-22.71,0.93 -47.39,0.16 -70.43,0.16 -23.37,-0 -46.84,0.09 -70.2,-0.15 -28.06,-0.29 -40.68,-2.05 -53.43,16.96 -4.64,6.91 -8.22,15.29 -9.46,25.44 -0.73,5.99 -1.83,29.8 0.16,33.79 3.3,2.56 25.84,1.37 32.31,1.33l100.63 0 9.59 0.12c24.24,-1.54 52.99,-0.12 77.74,-0.17 10.97,-0.02 70.42,0.85 75.98,-0.72 2.56,-5.39 1.39,-30.39 -0.23,-37.61 -2.01,-8.97 -8.87,-21.72 -13.31,-27.3 -14.09,-17.71 -39.35,-10.62 -69.65,-11.89zm-255.17 260.63c-3.2,-1.28 -1.29,-0.44 -6.19,-0.69 -94.83,-7.56 -171.55,-42.61 -230.68,-87.27 -4.1,-3.1 -7.56,-5.24 -11.47,-8.82 -3.76,-3.44 -7.19,-5.91 -10.8,-8.75 -3.65,-2.87 -6.89,-6.71 -10.49,-9.72 -27.36,-22.8 -60.61,-65.44 -80.32,-98.31 -56.56,-94.33 -76.65,-209.77 -50.98,-324.09 12.27,-54.67 32.06,-95.83 59.09,-139.77 5.22,-8.49 27.04,-38.98 33.87,-45.69l18.31 -20.72c12.89,-13.7 26.26,-24.47 41.69,-37.84 11.43,-9.91 33.67,-25.05 46.82,-32.76 38.06,-22.32 66.92,-35.93 110.83,-48.26 88.96,-24.99 191.13,-20.04 273.48,12.31 41.38,16.26 91.35,43 125.57,73.31l21.17 18.61c10.61,9.35 19.62,19.95 29.46,30.61 9.55,10.35 17.35,22.07 25.94,33.35 3,3.94 5.68,7.6 8.42,11.81 25.17,38.72 43.29,76.51 56.5,122.13 5.22,18.04 12.13,46 13.39,65.4l0.67 4.25 0.91 9.72c0.07,0.73 0.13,2.63 0.23,3.17 0.49,2.58 -0.19,0.72 0.84,2.15 -0.89,5.21 0.73,22.34 0.89,29.04 1.44,61.19 -10.54,118.58 -32.63,174.47 -12.36,31.26 -37.56,75.76 -59.8,103.23 -11.43,14.11 -21.43,26.22 -34.17,39.14 -5.09,5.15 -9.73,9.64 -15.3,14.35 -16.07,13.61 -30.72,27.44 -49.3,39.57l-36.85 22.46c-13.54,7.18 -24.71,12.77 -39.29,19.19 -51.97,22.89 -114.09,35 -172.19,35 -7.83,0 -20.77,-1.34 -27.6,-0.59zm-36.33 20.96c2.05,1.46 0.79,0.71 4.52,1.2l12.24 1.49c9.04,-0.1 21,1.38 30.72,1.81 27.99,1.23 60.26,-0.8 87.45,-5.03 21.7,-3.37 80.78,-16.5 97.94,-26.46 4.65,-1.67 27.69,-10.06 30.42,-13.81 8.19,-0.41 56.09,-30.43 63.37,-35.57 10.34,-7.31 19.17,-14 28.65,-21.29 8.81,-6.77 31.9,-27.8 38.98,-35.09 4.33,-4.46 7.68,-8.74 11.9,-13.07 8.7,-8.93 9.88,-10.94 17.46,-19.96l7.94 -10.01c0.82,-1.07 2.02,-2.16 2.9,-3.28 1.9,-2.41 3.45,-4.65 5.22,-7.28 6.63,-9.87 13.98,-19.57 20.07,-29.85 2.49,-4.22 7.85,-11.46 8.51,-15.59l5.39 -10.58 13.2 -23.79 0.02 -1.22 3.8 -8.41 -4.33 8.5 -0.01 0 4.42 -8.68 0.49 -1.09c3.59,-6.44 7.1,-17.32 9.91,-24.87 23.37,-62.76 33.43,-144.18 24.63,-210.11 -0.19,-3.71 0.14,-9.86 -2.04,-12.32 0.88,-8.41 -6.95,-41.46 -9.35,-50.7 -16.06,-61.66 -41.9,-115.57 -79.73,-165.16l-6.43 -8.39c-1.37,-1.9 -1.33,-2.24 -2.98,-4.04l-10.3 -12.35c-22.19,-24.52 -39.06,-41.26 -64.53,-61.04 -14.22,-11.05 -21.1,-15.15 -34.56,-24.7 -3.04,-2.15 -5.93,-3.77 -9.08,-5.72 -3.17,-1.95 -6.06,-3.87 -9.25,-5.58 -6.12,-3.27 -12.73,-7.07 -19.17,-10.48 -75.28,-39.81 -156.92,-55.77 -243.33,-51.48 -18.59,0.93 -35.57,4.25 -52.96,6.21l-2.37 0.65c-45.7,5.59 -116.96,34.41 -154.81,58.27 -32.22,20.32 -62.67,42.65 -89.5,69.62 -17.41,17.5 -34.08,37.27 -48.59,57.53 -3.98,5.55 -7.19,9.72 -10.93,15.56 -11.6,18.09 -19.04,30.17 -29.03,50.5 -31.85,64.87 -49.96,139.83 -47.72,217.43 1.82,63.17 16.3,122.61 38.59,174.24 11.52,26.67 38.7,75.64 59.41,99.7 4.89,5.68 19.77,24.62 24.24,28.81 5.24,4.91 8.33,8.83 12.96,13.56l27.72 25.35c16.69,14.1 26.89,21.43 45.21,34.29l16.27 10.29c30.5,18.16 55.34,29.73 90.49,42.1 14.43,5.08 71.39,21.31 85.98,19.91zm-198.14 -279.22c3.09,0.04 3.38,0.37 3.31,-2.97 -0.19,0.13 -0.35,0.42 -0.45,0.53 -2.73,3.14 1.12,0.67 -1.53,1.53 -2.27,-2.76 -0.92,-3.7 2.59,-2.91 0.73,2.48 0.61,2.67 -0.8,4.9l-4.15 -0.12c-0.08,-0.14 -0.23,-0.32 -0.28,-0.4 -2.57,-4.47 -0.83,-7.09 4.8,-7.36l-4.67 1.78c-0.43,3.88 0.19,3.81 1.17,5.03zm684.26 12.41l0.01 0.01 -0.58 1.15 0.03 0.44 1.31 -0.96 -0.77 -0.64zm-10.41 22.45c2.04,-3.38 3.33,-6.78 5,-10.17 1.65,-3.34 4.41,-6.98 4.87,-10.69l-0.13 -1.61 0.09 1.16 0.58 -1.14 -10.41 22.45zm-1.1 0.17l0.09 -0.18 -0.09 0.18zm-6.31 12.39c2.21,-1.45 5.18,-7.19 5.75,-9.89 1.16,-0.46 0.94,0.74 0.93,-1.29l0.73 -1.37 -7.41 12.56zm6.41 -12.57l-0.09 0.19 0.09 -0.19zm-1.02 1.99l-5.39 10.58 5.39 -10.58zm-132.28 -54.81c1.56,-10.19 -2.41,-19.98 -7.02,-26.11 -5.08,-6.74 -12.02,-9.54 -23.98,-9.53l-166.92 -0.1c-13.43,-0.02 -17.44,1.12 -24.1,8.77 -2.78,3.2 -11.09,18.79 -7.81,24.02 2.9,4.63 23.49,2.93 30.35,2.93 22.1,0 44.2,0.03 66.3,0 44.39,-0.06 88.8,-0.13 133.17,0.02zm-560.09 51.32c-1.54,5.01 2.64,3.62 4.59,9.3 -4.1,-0.63 -8.1,-4.74 -7.95,-8.09 0.15,-3.41 1.57,-2.87 3.33,-4.26 1.76,-1.38 3.93,-7.87 9.96,-2.31 1.88,1.74 3.47,2.49 3.63,5.82 -5.9,-1.03 -3.16,-4.88 -9.63,-5.07 0.11,4.08 -0.17,2.69 2.5,5.12 0.81,0.74 3.38,2.58 2.26,3.72 -2.06,2.11 -3.66,-4.73 -8.69,-4.23zm15.07 -12.56c2.12,1.95 7.53,7.56 -0.03,9.18 0.19,-3.73 0.57,-1.25 0.88,-4.81 -1.49,-2.26 -7.73,-8.33 -0.24,-9.97 1.65,4.16 -1,0.14 -0.61,5.61zm5.84 -8.11c1.02,1.92 1.96,3.56 5.1,3.8 1.9,-2.42 0.64,-1.93 0.46,-4.02 -0.1,-1.17 0,-1.04 0.21,-1.58 4.27,-0.35 5.01,9.59 -2.14,8.24 -1.89,-0.36 -4.3,-3.15 -5.39,-4.25 -1.67,-1.69 -3.51,-2.63 -3.73,-5.08 2.39,-0.21 1.78,0.05 3.38,0.93 1.61,-1.82 2.39,-3.29 5.8,-3.78 -0.32,3.38 -1.2,4.07 -3.69,5.76zm5.79 -10.21c3.77,0.44 8.08,5.44 9.09,9.13 -3.4,-0.73 -8.74,-5.35 -9.09,-9.13zm-0.93 -7.72c-0.04,-0.13 -0.37,-0.26 -0.39,-0.12l-0.54 0.06c0.3,0.5 1.48,1.94 0.93,0.06zm0.3 1.56c1.93,9.58 -9.53,8.57 -9.98,1.46 -0.4,-6.42 9.24,-9.44 11.61,-1.46l-1.63 0zm18.39 6.02c-4.64,-0.38 -2.26,-5.14 -9.19,-4.63 -0.39,6.84 4.38,4.15 4.57,9.3 -2.48,-0.07 -7.44,-4.75 -7.52,-7.62 -0.09,-3.2 1.45,-3.22 3.06,-4.51 3.09,-2.48 0.67,-2.28 3.98,-4.08 4.43,-1.91 9.61,3.53 9.94,7.03 -5.04,-0.13 -6.26,-7.05 -9.06,-4.35 -2.38,2.3 2.79,5.04 3.55,6.11 1.03,1.46 0.98,-0.7 0.66,2.76zm13.47 -15.49c-0.06,0.82 0.51,3.32 -3.34,4.62 -2.62,0.89 -5.22,-0.06 -6.59,-1.54 -0.8,-0.86 -5.65,-9.45 4.94,-9.65 0.17,1 0.47,2.28 0.44,3.57 -0.07,3.74 -0.8,3.26 -0.86,3.36 -3.01,-1.67 -0.85,-0.3 -2.34,-3.56 -0.25,0.32 -1.74,-0.08 -0.96,3.25 1.15,4.89 6.69,0.17 8.7,-0.06zm48.5 -45.13c2.13,-5.72 -1.55,-9.89 -3.95,-12.5l-16.72 -17.58c-5.74,-5.36 -9.75,-14.19 -22.5,-3.65 -3.59,2.97 -6.3,4.48 -9.88,7.3l-38.32 31.07c-15.43,14.59 -19.78,15.38 -34.08,34.61 -18.6,25.02 -12.24,61.39 20.07,62.81 18.35,0.81 30.63,-15.65 42.55,-26.74 6.91,-6.43 10.19,-11.68 16.77,-18.33l31.37 -37.24c2.6,-3.15 13.41,-16.36 14.67,-19.74zm341.26 113.1c2.8,8.3 5.86,0.31 10.82,-0.33 -0.52,3.27 0.6,1.43 -1.66,3.75 -0.46,0.47 -2.19,1.72 -2.67,1.98 -2.68,1.45 -5.16,0.67 -6.87,-0.85 -7.17,-6.33 3.7,-12.81 4.14,-8.88l0.72 2.75c0,2.36 -0.65,2.72 -1.07,3.34 -2.42,-1.68 -1.03,-0.79 -2.14,-4.34 -0.07,0.86 -0.61,0.98 -1.27,2.56zm16.99 -6.57c0.6,5.82 -12.33,3.86 -9.74,-5 1.85,-6.31 12,-3.18 12.98,4.15 -4.48,-1.34 -2.79,-1.94 -5.54,-3.87 -2.25,-1.57 -3.56,-0.5 -5.25,1.19l0.94 3.23c4.39,2.09 2.94,-0.35 6.62,0.3zm7.31 -5.46c-2.24,-0.31 -5.56,-3.48 -6.63,-5.37 -2.69,-4.78 1.26,-5.81 3.04,-7.44 1.94,-1.78 2.59,-5.99 7.79,-3.36 2.43,1.22 5.22,4.31 5.36,7.22 -5.9,-1.03 -3.16,-4.88 -9.64,-5.07 0.19,6.56 2.87,3.15 5.28,8.58 -3.87,2.3 -3.49,-4.54 -9.2,-3.97 -1.82,5.9 4.61,3.9 4,9.42zm11.92 -17.61c-1.49,-2.26 -7.73,-8.33 -0.24,-9.97 1.33,3.35 -0.42,0.67 -0.61,5.61 2.12,1.95 7.54,7.56 -0.03,9.18 0.19,-3.73 0.57,-1.25 0.88,-4.81zm2.88 -14.45c1.61,-1.82 2.39,-3.29 5.8,-3.78 -0.31,3.38 -1.2,4.07 -3.69,5.76 1.02,1.92 1.96,3.56 5.11,3.8 0.88,-1.12 1.09,-0.95 0.89,-2.5 -0.22,-1.67 -0.89,-1.34 -0.22,-3.1 4.6,-0.37 4.74,10.52 -2.82,8.05 -1.25,-0.41 -4.14,-3.49 -5.1,-4.46 -1.81,-1.82 -3.11,-2.18 -3.35,-4.69 2.39,-0.21 1.78,0.05 3.39,0.93zm7.9 -8.24c3.77,0.44 8.08,5.44 9.09,9.13 -3.42,-0.74 -8.71,-5.33 -9.09,-9.13zm-244.5 -225.34c1.22,-0.5 0.5,-0.09 1.83,-0.18 0.18,-0.01 0.42,0.02 0.6,0 4.21,-0.35 2.06,-1.4 5.83,-3.48 1.81,2.59 0.05,2.42 -2.71,5.99 1.3,2.22 2.04,3.8 5.67,3.77 0.37,-1.82 0.02,-2.12 -0.02,-3.45l0.18 -2.32c6.69,2.59 1.4,12.51 -5.6,6.8 -2.44,-1.99 -4.76,-3.87 -5.78,-7.14zm14.71 -6.46c3.27,2.72 5.52,4.77 4.93,7.65 -2.2,-0.43 -7.89,-5.34 -8.44,-8.95 2.93,0.22 1.19,-0.63 3.51,1.3zm-7.01 -6.95l1.97 2.72c-0.24,-3.12 0.39,-2.69 -1.23,-3.62 -1.45,-0.83 -5.15,0.18 -1.3,3.22l0.56 -2.32zm-6.79 3.06c-0.1,-10.82 6.94,-8.81 8.85,-7.53 1.34,0.89 1.5,1.7 2.12,3.46 -11.11,-8.59 -12.64,8.15 -2.59,4.65 -2.42,-1.86 0.56,-0.24 -1.57,-0.69 -0.21,-0.04 -0.89,-0.01 -1.11,-0.04 -1.16,-0.12 -0.79,0.16 -2.26,-0.4 -0.72,-2.52 -0.83,-2.13 0.13,-4.54 1.98,-0.76 -2.4,-0.57 2.25,-0.64 1.26,-0.02 3.76,0.28 2.98,2.04 1.59,1.41 0.94,-2.92 1.29,2.34 0.05,0.7 -0.2,1.43 -0.49,2.06 -2.85,6.19 -9.22,-0.38 -9.61,-0.72zm21.8 -9.35c3.64,-0.5 5.06,-0.33 7.54,1.61 2.03,1.59 3.42,2.61 3.69,5.57 -3.06,-0.07 -3.24,-1.2 -4.89,-2.85 -3.87,-3.88 -4.39,-1.42 -4.42,-1.38l0.15 2.56c1.12,2.05 4.61,2.52 4.24,6.09 -4.39,-0.11 -2.47,-4.65 -9.14,-4.62 -0.31,7.3 3.92,3.96 4.56,9.47 -2.59,-0.28 -7.36,-4.61 -7.53,-7.71 -0.33,-5.97 1.97,-0.49 5.81,-8.74zm16.63 1.2c-10.33,-0.25 -12.41,-11.35 -1.76,-11.54l-0.14 6.38c-0.04,-0.11 -0.21,0.41 -0.32,0.61 -1.89,-1.06 -1.3,-0.47 -2.08,-4.42 -0.19,1.67 -0.91,0.53 -1.4,3.3 0.8,5.2 7.45,0.88 8.78,0.81 0,3.8 -0.7,2.7 -3.08,4.87zm443.36 12.05c3.27,2.72 5.53,4.78 4.94,7.65 -2.3,-0.44 -3.43,-2.1 -5.02,-3.67 -1.77,-1.75 -2.97,-2.28 -3.43,-5.28 2.93,0.22 1.19,-0.63 3.51,1.3z"/>
 </g>
</svg>
