<?xml version="1.0" encoding="UTF-8"?>
<!DOCTYPE svg PUBLIC "-//W3C//DTD SVG 1.0//EN" "http://www.w3.org/TR/2001/REC-SVG-20010904/DTD/svg10.dtd">
<!-- Creator: CorelDRAW 2019 (64-Bit) -->
<svg xmlns="http://www.w3.org/2000/svg" xml:space="preserve" width="1in" height="1in" version="1.0" style="shape-rendering:geometricPrecision; text-rendering:geometricPrecision; image-rendering:optimizeQuality; fill-rule:evenodd; clip-rule:evenodd"
viewBox="0 0 1000 1000"
 xmlns:xlink="http://www.w3.org/1999/xlink">
 <defs>
  <style type="text/css">
   <![CDATA[
    .fil0 {fill:#C8BA4A}
   ]]>
  </style>
 </defs>
 <g id="Layer_x0020_1">
  <metadata id="CorelCorpID_0Corel-Layer"/>
  <path class="fil0" d="M597.93 645.65c-99.81,-7.68 -98.63,-24.05 -174.44,-50.83 -69.93,-24.71 -136.81,-13 -212.72,-15.74l-7.67 -35.46 -150.87 2.85c4.2,136.13 42.93,194.32 88.63,290.98l67.88 -2.65 8.96 -31.07c107.59,24.85 310.11,118.39 413.47,65.57 56.72,-28.99 110.51,-62.81 167.19,-92.54 31.09,-16.31 54.34,-29.85 83.63,-46.27 29.45,-16.5 62.13,-22.67 65.78,-59.82 -22.62,-40.02 -73.57,-7.85 -112.43,7.45 -38.39,15.12 -81.6,30.3 -117.28,46.57 -55.18,25.16 8.76,29.8 -133.23,33.52 -45.02,1.18 -124.01,11.23 -140.96,-8.45 5.71,-14.02 -8.89,-8.9 17.59,-14.29 46.35,-9.43 284.95,27.55 229.43,-68.73 -15.18,-26.32 -57.22,-18.35 -92.97,-21.1zm28.84 -276.73l-42.88 -6.14 0.22 47.8 46.14 0.07 -3.48 -41.73zm-45.36 125.1l47.19 1.65 5.65 -48.87 -52.63 -1.96 -0.21 49.18zm-85.09 -80.16l46.11 -0.31 2.26 -51.35 -21.9 -0.6c-36.48,-0.71 -35.28,16.38 -26.48,52.26zm1.69 78.27c17.02,6.76 25.17,4.77 47.08,3.75l-0.25 -50.85 -51.62 -0.96c-0.23,22.81 -2.81,30.83 4.78,48.06zm-92.44 -273.3c0.21,-35.1 8.65,-43.96 -23.12,-48.1 -0.19,-0.02 -34.13,-0.04 -35.12,0.04 -8.12,0.7 -7.92,0.22 -15.71,2.48 -48.67,14.06 18.71,96.67 -44.73,142.69 -17.06,12.38 -30.61,22.58 -48.43,36.38 -44.37,34.35 -31.1,79.34 34.93,67.98l-0.04 121.39 51.35 -0.75c0.33,-123.47 -18.7,-150.12 29.73,-185.42l207.91 -154.75c26.22,9.08 38.82,25.61 60.32,42.22l178.16 132.49 1.07 274.89 50.39 -16.85 0.67 -213.83c24.85,6.81 38.33,1.92 56.07,-6.16 16.31,-53.41 -21.46,-60.8 -98.16,-121.37l-191.14 -147.76c-66.78,-55.54 -74.9,-25.04 -145.1,25.99 -15.83,11.5 -52.89,42.44 -69.07,48.43z"/>
 </g>
</svg>
