<?xml version="1.0" encoding="UTF-8"?>
<!DOCTYPE svg PUBLIC "-//W3C//DTD SVG 1.0//EN" "http://www.w3.org/TR/2001/REC-SVG-20010904/DTD/svg10.dtd">
<!-- Creator: CorelDRAW 2019 (64-Bit) -->
<svg xmlns="http://www.w3.org/2000/svg" xml:space="preserve" width="1in" height="1in" version="1.0" style="shape-rendering:geometricPrecision; text-rendering:geometricPrecision; image-rendering:optimizeQuality; fill-rule:evenodd; clip-rule:evenodd"
viewBox="0 0 1000 1000"
 xmlns:xlink="http://www.w3.org/1999/xlink">
 <defs>
  <style type="text/css">
   <![CDATA[
    .fil0 {fill:#024639}
   ]]>
  </style>
 </defs>
 <g id="Layer_x0020_1">
  <metadata id="CorelCorpID_0Corel-Layer"/>
  <path class="fil0" d="M286.47 204.23l-1.64 -58.73c-27.94,-7.32 -82.51,-7.67 -109,0.52 -10.05,56.83 13.6,129.77 -22.9,163.88 -21.78,20.36 -96.85,66.69 -104.77,87.68 -14.75,39.1 26.24,90 99.91,33.34 19.54,-15.04 31.91,-26.64 51.94,-40.98l270.43 -206.83c25.91,-13.64 69.65,32.42 109.06,61.41l213.85 164.05c26.75,19.78 88.34,81.14 122.3,23.11 17.8,-30.42 -3.6,-47.48 -19.74,-60.13l-266.86 -204.17c-65.62,-50.91 -125.76,-120.64 -178.26,-85.4 -38.05,25.53 -136.44,108.69 -164.31,122.26zm414.47 223.51c0.06,10.02 -7.98,17.26 -15.62,18.65 -14.13,2.57 -15,-5.54 -19.96,-13.46 3.07,-30.04 35.45,-28.54 35.58,-5.19zm-31.34 -31.84c-36.69,30.09 -20.92,74.47 22.14,65.67 28.61,-5.85 50.03,-68.66 -22.14,-65.67zm-148.35 234.39c8.67,-0.86 9.02,3.24 19.87,-4.41 1.22,-0.87 4.23,-4.29 4.83,-5.45 10.94,-21.17 1.03,-3.88 -0.47,-10.97l-36.39 4.2c4.77,25.03 -4.19,8.95 12.16,16.64zm120.6 52.8l-28.41 4.64 -9.26 -19.2 -7.65 -87.74c6.41,-3.92 -0.12,-1.54 13.72,-5.68 8.15,-2.44 2.14,-0.79 9.33,-2.21l50.06 -4.12c14.39,1.84 7.66,-1.2 15.82,6.53 -0.65,23 8.35,15.04 -22.97,19.28 -19.33,2.62 -20.25,-2.83 -34.25,8.11 9.82,25.95 30.68,-1.65 56.93,10.93l1.12 16.45c-18.02,9.98 -18.46,2.85 -35.87,7 -26.5,6.32 -16.08,-4.61 -16.92,21.34 14.39,5.04 13.2,1.46 31.4,0.06 9.15,-0.7 11.24,-1.45 20.2,-0.15 16.06,2.33 2.05,-2.85 11.66,4.6 -0.09,10.85 19.6,27.7 -54.93,20.15zm231.61 -20.23c-13.55,-4.33 -4.49,-0.69 -12.12,-6.08 -0.76,-0.54 -2.25,-1.48 -2.8,-3.39 -0.57,-1.96 -1.54,-2.59 -2.34,-3.87l-4.73 -68.73c-24.22,-10.52 27.08,7.54 -12.88,-2.16 -24.81,-6.02 -16.06,-0.11 -21.78,-14.27 7.27,-16.22 -12.61,-6.78 22.36,-13.4 3.7,-0.7 18.34,-1.47 24.09,-2.09 62.81,-6.77 39.39,-3.35 48.35,4.53 -1.95,30.68 2.92,8.58 -30.37,22.02l7.37 86.6 -15.17 0.83zm-93.33 -54.48l-5.93 -23.72 5.54 -27.39 16.43 -1.41c13.36,18.93 13.67,85.25 15.83,112.91 -51.89,7.26 -37.93,-24.7 -71.39,-48.45l0.98 39.98 0.87 13.28 -17.25 6.08c-7.89,-8.29 -2.4,0.29 -6.93,-10.26l-11.57 -105.18c45.69,-2.71 26.29,7.89 57.27,35.95l5.45 7.33c-1.54,9.02 -3.67,7.48 5.07,5.9 5.09,9.43 0.77,8.78 5.36,-1.13l0.28 -3.9zm-302.49 -21.58c23.67,-1.87 64.57,-11.17 83.73,-1.07 33.04,17.42 2.83,60.24 1.79,57.72 -0.35,-0.84 -1.76,1.97 -2.51,3.05 14.14,12.02 22.91,26.19 34.35,44.38l-37.49 2.16c-9.45,-15.82 -21.06,-38.66 -43.91,-38.56l0.76 44.27 -26.43 2.51 -10.3 -114.46zm-65.65 -62.01l57.93 0.16 -1.72 -107.04 -57.57 -0.15 1.37 107.03zm89.1 -2.87c26.7,-11.51 35.02,-26.54 60,-38.17l-1.62 -65.7 -57.92 0.5 -0.46 103.37zm41.94 -7.13c52.7,-4.02 82.97,-17.04 111.02,-49.63l-12.25 -20.82c-20.67,9.02 -85.67,55.19 -98.77,70.44zm176.17 -53.56c58.73,20.06 41.64,32.95 121.31,22.72l-111.8 -49.5 -9.51 26.78zm-270.91 163.37c6.5,56.21 -3.28,123.33 63.11,123.79l346.57 -34.09c71.92,-6.9 105.25,-8.37 95.05,-89.02 -18.98,-150.03 14.44,-137.52 -239.3,-110.38 -58.17,6.22 -115.87,11.91 -174.13,16.94 -78.49,6.76 -101.45,5.04 -91.3,92.78zm-341.62 246.17l-7.9 4.02c-22.49,9.28 -19.61,-8.29 -19.61,52.69l812.39 0.13c-0.04,-77.31 -0.61,-39.92 -31.42,-62.04l0.05 -122.24 -63.28 6.24 0.02 123.15 -388.8 -0.93c1.13,-63.56 0.78,-128.95 0.17,-192.57 -1.36,-140 -170.3,-137.91 -171.3,5.48 -0.43,61.38 -0.63,124.11 0.35,185.44 -8.48,7.2 13.57,6.18 -16.19,7.22l-51.68 -3.43 -5.65 -282.15c0.09,-41.56 6.13,-35.69 7.33,-38.02 10.91,-19.98 31.96,-27.69 51.03,-43.2l170.74 -124.77c63.77,-47.87 83.71,-72.6 124.72,-41.12l114.24 81.9c11.3,-24.15 0.67,-19.97 25.69,-39.31 1.33,-1.03 6.19,-4.67 7.2,-5.46l7.29 -6.27c-31.77,-16.91 -146.94,-105.13 -188.04,-132.5 -27.71,14 -69.39,48.21 -95.76,66.81l-282.2 204.12 0.61 356.83z"/>
 </g>
</svg>
