<?xml version="1.0" encoding="UTF-8"?>
<!DOCTYPE svg PUBLIC "-//W3C//DTD SVG 1.0//EN" "http://www.w3.org/TR/2001/REC-SVG-20010904/DTD/svg10.dtd">
<!-- Creator: CorelDRAW 2019 (64-Bit) -->
<svg xmlns="http://www.w3.org/2000/svg" xml:space="preserve" width="1in" height="1in" version="1.0" style="shape-rendering:geometricPrecision; text-rendering:geometricPrecision; image-rendering:optimizeQuality; fill-rule:evenodd; clip-rule:evenodd"
viewBox="0 0 1000 1000"
 xmlns:xlink="http://www.w3.org/1999/xlink">
 <defs>
  <style type="text/css">
   <![CDATA[
    .fil0 {fill:#024639}
   ]]>
  </style>
 </defs>
 <g id="Layer_x0020_1">
  <metadata id="CorelCorpID_0Corel-Layer"/>
  <path class="fil0" d="M473.24 211.52c82.47,-36.73 138.61,78.06 60.52,122.65 -52.21,29.81 -125.86,-17.13 -98.24,-90.42 30.73,-35.49 32.24,-26.68 37.72,-32.23zm21.33 109.82l11.2 0 0 -10.55c16.9,-1.29 27.99,-9.58 27.99,-23.76l0 -0.22c0,-14.62 -10.23,-20.2 -28.21,-23.76l0 -8.81c5.28,1.07 10.98,3.21 15.61,6.55l10.34 -16.33c-7.22,-4.74 -15.29,-7.86 -25.3,-8.83l0 -6.46 -11.2 0 0 6.24c-19.27,0.97 -28.85,10.75 -28.85,24.08l0 0.21c0,14.09 10.02,19.99 29.07,23.65l0 9.03c-7,-1.08 -14.43,-3.86 -22.39,-9.03l-10.98 16.24c9.15,6.33 20.78,10.1 32.73,11.18l0 10.55zm-6.35 -63.86l0 -0.21c0,-2.15 1.94,-3.86 7.22,-3.96l0 8.7c-5.6,-0.97 -7.22,-2.26 -7.22,-4.52zm24.01 31.26l0 0.22c0,2.26 -1.94,3.86 -6.89,4.07l0 -8.7c5.49,0.97 6.89,2.15 6.89,4.41zm152.1 465.63l97.97 1.38 0.75 -237.76 -97 -0.21 -1.72 236.59zm-427.12 2.94l98.07 -1.53 2.07 -238.39 -100.32 0.31 0.18 239.61zm213.78 -0.91l100.02 -1.12 -0.02 -237.63 -100.39 -0.11 0.38 238.85zm-325.95 -269.52l749.44 1.85 0.55 -52.25 -748.52 0.13 -1.46 50.28zm-0.15 346.24l751.89 -0.14 0.11 -54.28 -752.24 0 0.24 54.43zm-105.03 84.52l960.18 0.52 2.46 -58.74 -964.99 0.01 2.35 58.21zm99.75 -543.09c64.5,0 37.57,-0.08 51.12,14.89 12.37,13.67 -3.91,7.48 17.06,16.61l592.67 0.72c71.8,0.93 33.74,2.34 58.62,-32.2l41.27 -2.15c-47.87,-51.12 -129.74,-100.98 -184.5,-144.93l-189.81 -145.63c-25.33,9.34 -27.06,17.8 -50.31,33.55 -74.59,50.53 -158.48,124.74 -239.69,182.04 -15.11,10.66 -32.62,22.93 -47.75,33.96l-48.67 43.15z"/>
 </g>
</svg>
